<?xml version="1.0" encoding="UTF-8"?>
<svg id="Calque_1" data-name="Calque 1" xmlns="http://www.w3.org/2000/svg" viewBox="0 0 519.22 149.09">
  <defs>
    <style>
      .cls-1 {
        fill: #d4214a;
      }

      .cls-2 {
        fill: #233063;
      }
    </style>
  </defs>
  <path class="cls-2" d="m499.28,31.66c-5.22,5.1-10.3,10.07-15.43,15.09-7.79-5.1-16.25-7.03-25.4-5.37-7.47,1.35-13.73,4.97-18.92,10.48-9.88,10.47-11.9,26.48-4.96,39.36,6.97,12.94,21.3,19.88,35.96,17.35,14.59-2.52,24.8-14.25,27.11-25.1h-24.61v-21.24h46.19v65.9h-21.23v-10.54c-.56.36-.89.55-1.19.77-8.51,6.37-17.97,10.45-28.59,11.44-9.62.9-18.89-.86-27.55-5.1-17.6-8.62-28.23-22.67-31.03-42.05-4.26-29.54,15.2-55.67,42.51-61.79,16.72-3.75,32.06-.35,45.89,9.8.39.29.76.61,1.24,1.01Z"/>
  <path class="cls-2" d="m371.82,62.86c-10.12,9.19-20.23,18.39-30.39,27.63-10.15-9.23-20.24-18.4-30.61-27.82v65.21h-21.31V21.18c2.34,0,4.67-.05,7,.04.44.02.9.54,1.29.9,14.05,12.73,28.09,25.46,42.13,38.19.47.42.94.83,1.51,1.34,2.65-2.4,5.27-4.78,7.89-7.16,11.86-10.79,23.72-21.57,35.55-32.37.75-.68,1.48-1.02,2.51-.98,1.97.08,3.94.02,6,.02v106.7h-21.21V62.99c-.12-.04-.24-.08-.36-.13Z"/>
  <path class="cls-2" d="m189.96,127.89V21.25h70.98c.04.46.11.93.11,1.4,0,6.12-.03,12.24.03,18.36.01,1.2-.35,1.51-1.53,1.51-15.46-.04-30.92-.02-46.37-.02-.62,0-1.24,0-1.93,0v19.64h40.96v21.24h-40.94v23.25h1.83c15.23,0,30.47,0,45.7,0q1.82,0,1.82,1.83c0,6.03-.03,12.06.02,18.09,0,1.12-.3,1.44-1.43,1.44-22.67-.03-45.34-.02-68.01-.03-.39,0-.79-.04-1.25-.06Z"/>
  <path class="cls-1" d="m64.33,149.09v-54.93h15.92c.03.48.08.96.08,1.44,0,14.63,0,29.26.03,43.88,0,.99-.29,1.52-1.16,1.97-4.64,2.38-9.26,4.81-13.89,7.23-.27.14-.56.24-.98.42Z"/>
  <path class="cls-1" d="m80.19,54.98h-15.9c-.03-.57-.07-1.1-.07-1.63,0-14.49.01-28.97-.03-43.46,0-1.14.31-1.75,1.36-2.28,4.85-2.45,9.65-5,14.64-7.6v54.98Z"/>
  <path class="cls-1" d="m0,66.57h55.03v15.97c-.48.02-.92.06-1.35.06-14.65,0-29.29,0-43.94.03-.99,0-1.53-.27-1.98-1.16C5.24,76.55,2.66,71.67,0,66.57Z"/>
  <path class="cls-1" d="m146.99,82.57h-54.92v-16.05c.44,0,.91,0,1.39,0,14.64,0,29.27.01,43.91-.03,1.01,0,1.48.34,1.92,1.21,2.32,4.56,4.73,9.09,7.1,13.62.18.35.34.71.6,1.24Z"/>
  <path class="cls-1" d="m60.75,10.21v44.75h-16.07v-1.48c0-11.11.02-22.22-.03-33.33,0-1.2.35-1.84,1.44-2.39,4.65-2.35,9.26-4.8,13.88-7.21.19-.1.4-.17.77-.34Z"/>
  <path class="cls-1" d="m55.05,86.06v15.94c-.47.02-.94.06-1.41.06-11.26,0-22.52,0-33.78,0-.73,0-1.33.02-1.76-.83-2.47-4.84-5.01-9.65-7.52-14.46-.1-.19-.17-.4-.3-.72h44.77Z"/>
  <path class="cls-1" d="m83.92,138.89v-44.75h15.95c.03.53.07,1.02.07,1.5,0,11.12-.02,22.24.03,33.35,0,1.22-.4,1.85-1.47,2.39-4.5,2.27-8.95,4.63-13.42,6.96-.31.16-.64.3-1.17.54Z"/>
  <path class="cls-1" d="m136.81,63.09h-44.78v-15.97c.41-.02.84-.07,1.27-.07,11.31,0,22.62,0,33.93-.03.96,0,1.41.33,1.84,1.16,2.4,4.68,4.86,9.33,7.3,13.99.14.27.26.54.44.92Z"/>
  <path class="cls-1" d="m25.25,54.97c-.02-.5-.07-.94-.07-1.37,0-7.87,0-15.74-.02-23.61,0-.9.2-1.43,1.08-1.88,4.73-2.4,9.41-4.88,14.12-7.33.23-.12.49-.21.85-.36v34.56h-15.96Z"/>
  <path class="cls-1" d="m55.06,105.57v15.92c-.54.03-1.02.07-1.5.07-7.79,0-15.58-.02-23.37.03-1.02,0-1.6-.26-2.08-1.22-2.21-4.37-4.52-8.69-6.79-13.03-.28-.54-.55-1.09-.89-1.77h34.63Z"/>
  <path class="cls-1" d="m103.4,128.66v-34.5h16c.02.41.07.8.07,1.2,0,7.97,0,15.93,0,23.9,0,.63.04,1.16-.71,1.55-4.93,2.52-9.82,5.1-14.73,7.65-.15.08-.33.11-.64.2Z"/>
  <path class="cls-1" d="m126.64,43.55h-34.6v-15.91c.48-.03.96-.08,1.43-.08,7.84,0,15.67,0,23.51-.02.91,0,1.43.23,1.87,1.09,2.51,4.92,5.1,9.8,7.78,14.92Z"/>
</svg>