<svg width="128" height="104" viewBox="0 0 128 104" fill="none" xmlns="http://www.w3.org/2000/svg">
<path fill-rule="evenodd" clip-rule="evenodd" d="M30.1924 48.6309C30.3538 61.9743 30.075 66.3986 27.3577 72.3184C24.6404 78.2382 17.2001 80.1615 14.0975 80.2639C11.4742 80.3521 6.42081 80.2997 7.30383 78.8074C7.49004 78.4934 8.03201 78.0755 8.78641 77.4938C11.3767 75.4966 16.4715 71.5684 18.2704 63.281C19.0161 59.8454 19.3673 55.6875 19.4696 51.2674C17.7522 52.3521 16.5723 53.2825 15.746 53.9341L15.7459 53.9341C15.1844 54.3769 14.7862 54.6908 14.4936 54.837C13.3285 55.4195 11.872 55.1283 11.2479 52.798C10.6237 50.4677 10.6237 49.8019 12.5795 47.9709L12.753 47.8087C13.9754 46.6655 15.8986 44.8669 19.3906 42.4781C19.2183 37.6652 18.8721 32.8897 18.5126 28.6885C18.3921 27.3136 18.2906 26.1149 18.202 25.0688L18.202 25.0682C18.1609 24.5828 18.1226 24.1303 18.0864 23.7083C13.1196 24.9467 10.3249 27.0473 9.24296 29.758C8.84745 30.7465 8.6537 31.629 8.49253 32.3631C8.13956 33.9709 7.94284 34.8669 6.12536 34.6058C4.26944 34.3387 -0.650815 31.7412 0.074907 25.1423C0.800629 18.5434 10.6387 11.912 22.296 10.3957C35.2058 8.71702 39.2697 8.18021 45.5873 5.28648C49.8335 3.34097 51.8581 1.82388 53.0352 0.941873C53.9019 0.292404 54.3091 -0.012707 54.8053 0.109058C56.0454 0.414494 56.598 11.3603 50.1955 15.8303C44.7359 19.6428 36.6373 20.8254 27.8987 22.0796C28.2366 24.3525 29.0106 29.9094 29.5682 36.5092C37.1766 32.7424 46.1824 30.1816 47.7195 31.9934C49.3424 33.9084 48.635 37.8616 48.2189 39.5261C47.8028 41.1906 46.9705 43.6041 45.2644 43.9786C44.8727 44.0644 44.1267 44.122 43.1072 44.2008H43.1071H43.1071H43.107H43.107H43.107H43.1069C40.2987 44.4177 35.4153 44.7949 30.1449 46.3622C30.1677 47.1206 30.1835 47.8769 30.1924 48.6309ZM64.8574 52.5232C66.9492 51.693 69.3224 50.7512 70.3118 51.488C71.9813 52.7272 69.2332 61.4067 66.8471 62.3197C65.2686 62.9212 64.1235 63.2226 58.2445 64.7701L58.2442 64.7702L57.8156 64.883C57.5426 64.9549 57.2713 65.0268 57.0023 65.0981C52.245 66.359 48.1972 67.4319 48.1232 64.675C48.0773 62.9778 48.7301 58.5352 49.4961 53.3229L49.4961 53.3228C50.0353 49.6532 50.6307 45.602 51.0777 41.8588C51.6248 37.2794 51.9908 33.2057 52.3018 29.7441C52.8592 23.5392 53.24 19.3007 54.1711 17.6404C55.8115 14.7159 60.1251 13.3876 62.0267 13.063C63.9284 12.7384 66.0482 12.7834 66.2937 14.4628C66.6649 17.002 65.2883 27.1097 63.479 35.8283C61.6697 44.547 59.1347 54.6563 59.1347 54.6563C59.1347 54.6563 61.3118 53.8257 63.3026 53.12C63.7817 52.9501 64.3099 52.7405 64.8574 52.5232ZM78.9971 11.609C82.193 11.4892 84.0356 8.41071 83.9324 5.66429C83.8292 2.91786 80.4935 -0.0332927 77.2985 0.0882158C74.1035 0.209724 72.2576 3.35313 72.3599 6.09872C72.4623 8.84431 75.8021 11.7289 78.9971 11.609ZM22.0904 94.383C23.3221 92.5112 26.8966 91.8629 29.0746 93.2969C31.2493 94.7309 31.2102 97.7045 29.9776 99.5754C28.7451 101.446 25.198 102.048 23.02 100.614C20.842 99.1801 20.8587 96.2547 22.0904 94.383ZM81.4506 16.8814C80.2397 15.0005 74.6411 13.7662 73.0915 14.3205C71.7467 14.8021 71.9316 16.2975 72.1016 17.6728C72.1537 18.0941 72.2044 18.5042 72.2093 18.8704C72.2584 22.5898 71.5052 30.1474 70.7462 35.7252C70.4938 37.5802 70.1812 39.2643 69.9024 40.7666L69.9023 40.7668C69.3428 43.7814 68.9192 46.064 69.3896 47.5281C70.0946 49.7219 73.0782 51.5762 76.4263 51.7043C79.5631 51.8234 80.7665 51.6835 80.7057 50.565C80.68 50.0956 80.47 49.6734 80.1976 49.1258C79.7116 48.1492 79.0271 46.7734 78.8357 44.0185C78.6259 41.0002 79.426 36.7496 80.1795 32.747C80.4993 31.0482 80.8106 29.3941 81.0328 27.8979C81.1354 27.207 81.2406 26.5333 81.3426 25.8802L81.3431 25.8768L81.3433 25.8756L81.3434 25.875C81.9825 21.7827 82.4952 18.4992 81.4506 16.8814ZM99.9307 22.1745C102.277 20.0722 107.959 15.8194 115.73 15.6088C126.073 15.3284 128.273 24.2692 127.897 30.8682C127.521 37.4671 123.077 47.1145 117.367 52.0015C112.719 55.9829 106.675 58.5172 100.675 58.3133C99.1093 67.1534 96.3604 73.5509 95.3259 75.654C93.8303 78.695 92.2374 81.925 89.6899 81.6362C88.1045 81.4565 86.2985 80.9388 84.7047 79.3434C83.4687 78.1061 84.2109 76.4789 85.0248 74.6942L85.0249 74.694C85.2605 74.1775 85.5021 73.6478 85.7034 73.1106C85.7981 72.858 85.911 72.5781 86.0384 72.2618C86.9997 69.8769 88.7938 65.4258 89.9313 55.02C86.4117 52.9794 84.1097 50.4593 83.4397 48.511C82.4102 45.5157 83.4397 43.738 84.4226 44.2524C84.6007 44.3457 84.841 44.5892 85.1731 44.9257C86.0733 45.8378 87.6481 47.4334 90.4872 48.5751C91.1713 38.1204 90.5996 30.8956 90.3208 27.9669C90.2305 27.0173 90.0369 26.1415 89.8601 25.3422L89.8601 25.3421C89.4517 23.4951 89.1337 22.0566 90.3907 21.0592C91.6407 20.0672 97.7669 18.5167 99.0153 19.9124C99.3149 20.2503 99.6278 21.0093 99.9307 22.1745ZM101.697 49.5705C109.214 48.1157 113.598 42.3024 115.262 39.1856C117.182 35.592 117.555 28.8325 113.858 27.5683C110.162 26.3041 107.256 27.7206 104.22 30.3047C103.057 31.2951 102.123 32.0999 101.405 32.8089C101.641 36.202 101.778 40.5231 101.807 45.1903C101.817 46.6842 101.78 48.1456 101.697 49.5705ZM72.8876 78.8049C74.9732 79.1794 78.9838 77.6656 78.9855 71.8806C78.9855 66.5992 76.5278 64.64 73.5983 64.5152C70.6688 64.3904 62.4462 69.1433 59.1405 80.6126C55.8348 92.0818 59.6398 97.3183 64.3762 98.2563C69.1125 99.1942 71.7316 95.638 71.7316 95.638C71.7316 95.638 72.7303 97.136 75.2229 97.0095C77.7155 96.883 77.9693 96.0108 77.3418 94.641C76.7143 93.2711 77.142 84.9311 77.142 84.9311C77.142 84.9311 78.5818 84.2503 78.5136 83.066C78.4453 81.8817 78.0276 80.179 74.9732 80.4911C71.9189 80.8031 66.7448 81.8618 66.932 85.041C67.1193 88.2202 68.1804 89.6541 69.4288 89.0932C70.2235 88.7273 70.9799 88.2832 71.6867 87.7674C71.6867 87.7674 69.0551 93.5183 66.4368 92.2716C63.8186 91.0248 63.5697 87.1607 64.878 82.9221C66.1863 78.6834 70.4399 71.2406 72.1444 70.8944C73.3045 70.6589 72.9866 72.2634 72.0445 73.4444C70.6905 75.1388 70.802 78.4312 72.8876 78.8049ZM55.0866 77.2245C55.0858 83.0103 51.0743 84.5241 48.9887 84.1496C46.9039 83.7759 46.7916 80.4794 48.1498 78.7891C49.0919 77.6081 49.4148 76.0036 48.2497 76.2391C46.5461 76.5853 42.2933 84.0265 40.9841 88.2659C39.675 92.5054 39.9239 96.3696 42.5421 97.6163C45.1604 98.863 47.7928 93.1113 47.7928 93.1113C47.0857 93.627 46.329 94.0711 45.5341 94.437C44.2857 94.998 43.2237 93.5649 43.0373 90.3857C42.8509 87.2065 48.0241 86.1462 51.0785 85.8349C54.1329 85.5237 54.5498 87.2248 54.6189 88.4099C54.688 89.595 53.2473 90.275 53.2473 90.275C53.2473 90.275 52.8196 98.6141 53.4471 99.9848C54.0746 101.356 53.8249 102.228 51.3282 102.354C48.8314 102.481 47.8327 100.983 47.8327 100.983C47.8327 100.983 45.2153 104.539 40.4781 103.601C35.741 102.663 31.9359 97.4265 35.2416 85.9573C38.5473 74.488 46.7699 69.7342 49.6995 69.8591C52.629 69.9839 55.0866 71.943 55.0866 77.2245Z" fill="url(#paint0_linear_2_2)"/>
<defs>
<linearGradient id="paint0_linear_2_2" x1="16.7282" y1="92.3797" x2="109.649" y2="2.28872" gradientUnits="userSpaceOnUse">
<stop stop-color="#EF9A00"/>
<stop offset="1" stop-color="#FECC2F"/>
</linearGradient>
</defs>
</svg>
